# Alias OBJ Model File
# Exported from SketchUp, (c) 2000-2006 Google, Inc.
# File units = inches

mtllib armLower.mtl

g Mesh1 Model

usemtl FrontColor
v 8.4375 0 32
vt 8.4375 0
vn -3.46945e-016 0 1
v 3.13555 6.83321 32
vt 3.13555 6.83321
v -8.4375 0 32
vt -8.4375 0
f 1/1/1 2/2/1 3/3/1

v 8.4375 23.4375 32
vt 8.4375 23.4375
f 2/2/1 1/1/1 4/4/1

vt -32 0
vn 1 0 3.46945e-016
v 8.4375 4.2421 3.84161
vt -3.84161 4.2421
vt -32 23.4375
f 1/5/2 5/6/2 4/7/2

v 8.4375 3.75509 2.66586
vt -2.66586 3.75509
f 5/6/2 1/5/2 6/8/2

v 8.4375 0 -8.4375
vt 8.4375 0
f 6/8/2 1/5/2 7/9/2

vt 8.4375 -32
vn 0 -1 -0
v -8.4375 0 -8.4375
vt 8.4375 8.4375
vt -8.4375 8.4375
vt -8.4375 -32
f 3/10/3 8/11/3 7/12/3 1/13/3 

vt 32 -1.99639e-015
vn -1 2.36609e-016 -5.05506e-016
v -8.4375 3.75509 2.66586
vt 2.66586 3.75509
vt -8.4375 -1.99639e-015
f 3/14/4 9/15/4 8/16/4

v -8.4375 4.2421 3.84161
vt 3.84161 4.2421
f 9/15/4 3/14/4 10/17/4

v -8.4375 5.01683 4.85126
vt 4.85126 5.01683
f 10/17/4 3/14/4 11/18/4

v -8.4375 6.02647 5.62599
vt 5.62599 6.02647
f 11/18/4 3/14/4 12/19/4

v -8.4375 7.20223 6.113
vt 6.113 7.20223
f 12/19/4 3/14/4 13/20/4

v -8.4375 8.46397 6.27911
vt 6.27911 8.46397
f 13/20/4 3/14/4 14/21/4

v -8.4375 9.72572 6.113
vt 6.113 9.72572
f 3/14/4 15/22/4 14/21/4

v -8.4375 23.4375 3.17926
vt 3.17926 23.4375
f 3/14/4 16/23/4 15/22/4

v -8.4375 23.4375 32
vt 32 23.4375
f 16/23/4 3/14/4 17/24/4

v -3.48945 6.83321 32
vt -3.48945 6.83321
vt -8.4375 23.4375
f 3/3/1 18/25/1 17/26/1

f 18/25/1 3/3/1 2/2/1

vt 3.48945 -32
vt -3.13555 -32
v 3.13555 6.83321 41.3125
vt -3.13555 -41.3125
v -3.48945 6.83321 41.3125
vt 3.48945 -41.3125
f 18/27/3 2/28/3 19/29/3 20/30/3 

vt -32 6.83321
v 3.13555 13.4582 32
vt -32 13.4582
v 3.13555 13.4582 41.3125
vt -41.3125 13.4582
vt -41.3125 6.83321
f 2/31/2 21/32/2 22/33/2 19/34/2 

vt 3.13555 13.4582
f 2/2/1 4/4/1 21/35/1

v -3.48945 13.4582 32
vt -3.48945 13.4582
f 21/35/1 4/4/1 23/36/1

f 17/26/1 23/36/1 4/4/1

f 17/26/1 18/25/1 23/36/1

vt 32 13.4582
vn -1 0 -3.46945e-016
vt 32 6.83321
vt 41.3125 6.83321
v -3.48945 13.4582 41.3125
vt 41.3125 13.4582
f 23/37/5 18/38/5 20/39/5 24/40/5 

v -3.48945 6.83321 73.7605
vt 73.7605 6.83321
v -3.48945 13.4582 73.7605
vt 73.7605 13.4582
f 25/41/5 26/42/5 24/40/5 20/39/5 

v -8.4375 23.4375 73.7605
vt -8.4375 23.4375
vt -3.48945 6.83321
vt -3.48945 13.4582
f 27/43/1 25/44/1 26/45/1

v -8.4375 0 73.7605
vt -8.4375 0
f 28/46/1 25/44/1 27/43/1

v 3.13555 6.83321 73.7605
vt 3.13555 6.83321
f 25/44/1 28/46/1 29/47/1

v 8.4375 0 73.7605
vt 8.4375 0
f 30/48/1 29/47/1 28/46/1

v 8.4375 23.4375 73.7605
vt 8.4375 23.4375
f 29/47/1 30/48/1 31/49/1

vt -73.7605 23.4375
vt -73.7605 0
v 8.4375 0 41.3125
vt -41.3125 0
v 8.4375 23.4375 41.3125
vt -41.3125 23.4375
f 31/50/2 30/51/2 32/52/2 33/53/2 

vt -8.4375 -73.7605
vt 8.4375 -73.7605
v -8.4375 0 41.3125
vt 8.4375 -41.3125
vt -8.4375 -41.3125
f 30/54/3 28/55/3 34/56/3 32/57/3 

vt 73.7605 0
vt 73.7605 23.4375
v -8.4375 23.4375 41.3125
vt 41.3125 23.4375
vt 41.3125 0
f 28/58/5 27/59/5 35/60/5 34/61/5 

vt -8.4375 -73.7605
vn 0 1 -0
vt 8.4375 -73.7605
vt 8.4375 -41.3125
vt -8.4375 -41.3125
f 27/62/6 31/63/6 33/64/6 35/65/6 

f 27/43/1 26/45/1 31/49/1

v 3.13555 13.4582 73.7605
vt 3.13555 13.4582
f 36/66/1 31/49/1 26/45/1

f 29/47/1 31/49/1 36/66/1

vt -73.7605 13.4582
vt -73.7605 6.83321
f 36/67/2 29/68/2 19/34/2 22/33/2 

v 3.13555 6.83321 85.0625
vt -85.0625 6.83321
v 3.13555 13.4582 85.0625
vt -85.0625 13.4582
f 37/69/2 29/68/2 36/67/2 38/70/2 

v -3.48945 6.83321 85.0625
vt 3.48945 -85.0625
vt 3.48945 -73.7605
vt -3.13555 -73.7605
vt -3.13555 -85.0625
f 39/71/3 25/72/3 29/73/3 37/74/3 

v -3.48945 13.4582 85.0625
vt 85.0625 13.4582
vt 85.0625 6.83321
f 40/75/5 26/42/5 25/41/5 39/76/5 

vt 3.13555 -85.0625
vt 3.13555 -73.7605
vt -3.48945 -73.7605
vt -3.48945 -85.0625
f 38/77/6 36/78/6 26/79/6 40/80/6 

vt 3.13555 -41.3125
vt -3.48945 -41.3125
f 26/79/6 36/78/6 22/81/6 24/82/6 

vt 3.13555 -32
vt -3.48945 -32
f 21/83/6 23/84/6 24/82/6 22/81/6 

vt 3.48945 13.4582
vn 3.46945e-016 0 -1
vt 8.4375 23.4375
vt -3.13555 13.4582
f 24/85/7 35/86/7 22/87/7

vt 3.48945 6.83321
f 20/88/7 35/86/7 24/85/7

vt 8.4375 0
f 20/88/7 34/89/7 35/86/7

vt -8.4375 0
f 34/89/7 20/88/7 32/90/7

vt -3.13555 6.83321
f 19/91/7 32/90/7 20/88/7

vt -8.4375 23.4375
f 32/90/7 19/91/7 33/92/7

f 33/92/7 19/91/7 22/87/7

f 33/92/7 22/87/7 35/86/7

f 29/73/3 25/72/3 20/30/3 19/29/3 

vt 3.13555 13.4582
vt -3.48945 13.4582
vt -3.48945 6.83321
vt 3.13555 6.83321
f 38/93/1 40/94/1 39/95/1 37/96/1 

vt 8.4375 -32
v 8.4375 23.4375 3.17926
vt 8.4375 -3.17926
vt -8.4375 -3.17926
vt -8.4375 -32
f 4/97/6 41/98/6 16/99/6 17/100/6 

v 8.4375 9.72572 6.113
vt -6.113 9.72572
vt -3.17926 23.4375
f 4/7/2 42/101/2 41/102/2

v 8.4375 8.46397 6.27911
vt -6.27911 8.46397
f 42/101/2 4/7/2 43/103/2

v 8.4375 7.20223 6.113
vt -6.113 7.20223
f 4/7/2 44/104/2 43/103/2

v 8.4375 6.02647 5.62599
vt -5.62599 6.02647
f 4/7/2 45/105/2 44/104/2

v 8.4375 5.01683 4.85126
vt -4.85126 5.01683
f 4/7/2 46/106/2 45/105/2

f 4/7/2 5/6/2 46/106/2

vt -8.4375 5.63018
vn 1.4839e-015 0.866025 -0.5
vt 8.4375 5.63018
vt 8.4375 6.90281
vn 1.82369e-015 0.707107 -0.707107
vt -8.4375 6.90281
f 5/107/8 10/108/8 11/109/9 46/110/9 

vt -8.4375 3.89994
vn 1.03833e-015 0.965926 -0.258819
vt 8.4375 3.89994
vt 8.4375 5.17257
vt -8.4375 5.17257
f 6/111/10 9/112/10 10/113/8 5/114/8 

v 8.4375 3.58897 1.40411
vt -8.4375 1.86056
vn 4.08217e-016 1 -1.25978e-016
v -8.4375 3.58897 1.40411
vt 8.4375 1.86056
vt 8.4375 3.13319
vt -8.4375 3.13319
f 47/115/11 48/116/11 9/117/10 6/118/10 

v 8.4375 3.75509 0.142371
vt 8.4375 0.348984
vn -3.82905e-016 0.965926 0.258819
v -8.4375 3.75509 0.142371
vt -8.4375 0.348984
vt -8.4375 -0.923646
vt 8.4375 -0.923646
f 49/119/12 50/120/12 48/121/11 47/122/11 

v 8.4375 4.2421 -1.03339
vt 8.4375 2.57811
vn -1.14659e-015 0.866025 0.5
v -8.4375 4.2421 -1.03339
vt -8.4375 2.57811
vt -8.4375 1.30548
vt 8.4375 1.30548
f 51/123/13 52/124/13 50/125/12 49/126/12 

v 8.4375 5.01683 -2.04303
vt 8.4375 4.6749
vn -1.73977e-015 0.707107 0.707107
v -8.4375 5.01683 -2.04303
vt -8.4375 4.6749
vt -8.4375 3.40227
vt 8.4375 3.40227
f 53/127/14 54/128/14 52/129/13 51/130/13 

v 8.4375 6.02647 -2.81776
vt 8.4375 6.49647
vn -2.22802e-015 0.5 0.866025
v -8.4375 6.02647 -2.81776
vt -8.4375 6.49647
vt -8.4375 5.22384
vt 8.4375 5.22384
f 55/131/15 56/132/15 54/133/14 53/134/14 

v 8.4375 7.20223 -3.30477
vt 8.4375 7.91868
vn -2.57965e-015 0.258819 0.965926
v -8.4375 7.20223 -3.30477
vt -8.4375 7.91868
vt -8.4375 6.64605
vt 8.4375 6.64605
f 57/135/16 58/136/16 56/137/15 55/138/15 

v 8.4375 8.46397 -3.47089
vt 8.4375 8.84461
vn -2.67103e-015 6.85879e-016 1
v -8.4375 8.46397 -3.47089
vt -8.4375 8.84461
vt -8.4375 7.57198
vt 8.4375 7.57198
f 59/139/17 60/140/17 58/141/16 57/142/16 

v 8.4375 9.72572 -3.30477
vt 8.4375 9.21115
vn -2.53253e-015 -0.258819 0.965926
v -8.4375 9.72572 -3.30477
vt -8.4375 9.21115
vt -8.4375 7.93852
vt 8.4375 7.93852
f 61/143/18 62/144/18 60/145/17 59/146/17 

v 8.4375 10.9015 -2.81776
vt 8.4375 8.99334
vn -2.28352e-015 -0.5 0.866025
v -8.4375 10.9015 -2.81776
vt -8.4375 8.99334
vt -8.4375 7.72071
vt 8.4375 7.72071
f 63/147/19 64/148/19 62/149/18 61/150/18 

v 8.4375 11.9111 -2.04303
vt 8.4375 8.20601
vn -1.92645e-015 -0.707107 0.707107
v -8.4375 11.9111 -2.04303
vt -8.4375 8.20601
vt -8.4375 6.93338
vt 8.4375 6.93338
f 65/151/20 66/152/20 64/153/19 63/154/19 

v 8.4375 12.6858 -1.03339
vt 8.4375 6.90281
vn -1.44283e-015 -0.866025 0.5
v -8.4375 12.6858 -1.03339
vt -8.4375 6.90281
vt -8.4375 5.63018
vt 8.4375 5.63018
f 67/155/21 68/156/21 66/157/20 65/158/20 

v 8.4375 13.1729 0.142371
vt 8.4375 5.17257
vn -8.68936e-016 -0.965926 0.258819
v -8.4375 13.1729 0.142371
vt -8.4375 5.17257
vt -8.4375 3.89994
vt 8.4375 3.89994
f 69/159/22 70/160/22 68/161/21 67/162/21 

v 8.4375 13.339 1.40411
vt 8.4375 3.13319
vn -2.1279e-016 -1 -9.79828e-017
v -8.4375 13.339 1.40411
vt -8.4375 3.13319
vt -8.4375 1.86056
vt 8.4375 1.86056
f 71/163/23 72/164/23 70/165/22 69/166/22 

v 8.4375 13.1729 2.66586
vt -8.4375 -0.923646
vn 4.98537e-016 -0.965926 -0.258819
v -8.4375 13.1729 2.66586
vt 8.4375 -0.923646
vt 8.4375 0.348984
vt -8.4375 0.348984
f 73/167/24 74/168/24 72/169/23 71/170/23 

v 8.4375 12.6858 3.84161
vt -8.4375 1.30548
vn 1.15818e-015 -0.866025 -0.5
v -8.4375 12.6858 3.84161
vt 8.4375 1.30548
vt 8.4375 2.57811
vt -8.4375 2.57811
f 75/171/25 76/172/25 74/173/24 73/174/24 

v 8.4375 11.9111 4.85126
vt -8.4375 3.40227
vn 1.68443e-015 -0.707107 -0.707107
v -8.4375 11.9111 4.85126
vt 8.4375 3.40227
vt 8.4375 4.6749
vt -8.4375 4.6749
f 77/175/26 78/176/26 76/177/25 75/178/25 

v 8.4375 10.9015 5.62599
vt -8.4375 5.22384
vn 2.1015e-015 -0.5 -0.866025
v -8.4375 10.9015 5.62599
vt 8.4375 5.22384
vt 8.4375 6.49647
vt -8.4375 6.49647
f 79/179/27 80/180/27 78/181/26 77/182/26 

vt -8.4375 6.64605
vn 2.34996e-015 -0.258819 -0.965926
vt 8.4375 6.64605
vt 8.4375 7.91868
vt -8.4375 7.91868
f 42/183/28 15/184/28 80/185/27 79/186/27 

vt -8.4375 7.57198
vn 2.41134e-015 4.19926e-017 -1
vt 8.4375 7.57198
vt 8.4375 8.84461
vt -8.4375 8.84461
f 43/187/29 14/188/29 15/189/28 42/190/28 

vt -8.4375 7.93852
vn 2.34154e-015 0.258819 -0.965926
vt 8.4375 7.93852
vt 8.4375 9.21115
vt -8.4375 9.21115
f 44/191/30 13/192/30 14/193/29 43/194/29 

vt -8.4375 7.72071
vn 2.12787e-015 0.5 -0.866025
vt 8.4375 7.72071
vt 8.4375 8.99334
vt -8.4375 8.99334
f 45/195/31 12/196/31 13/197/30 44/198/30 

vt -8.4375 6.93338
vt 8.4375 6.93338
vt 8.4375 8.20601
vt -8.4375 8.20601
f 46/199/9 11/200/9 12/201/31 45/202/31 

vt 5.62599 10.9015
f 15/22/4 16/23/4 80/203/4

vt 4.85126 11.9111
f 80/203/4 16/23/4 78/204/4

vt 3.84161 12.6858
f 78/204/4 16/23/4 76/205/4

v -8.4375 18.5 3.17926
vt 3.17926 18.5
f 76/205/4 16/23/4 81/206/4

vt 8.4375 23.4375
vt -8.4375 23.4375
v 8.4375 18.5 3.17926
vt -8.4375 18.5
vt 8.4375 18.5
f 16/207/7 41/208/7 82/209/7 81/210/7 

vt -3.84161 12.6858
vt -3.17926 18.5
f 41/102/2 75/211/2 82/212/2

vt -4.85126 11.9111
f 41/102/2 77/213/2 75/211/2

vt -5.62599 10.9015
f 41/102/2 79/214/2 77/213/2

f 41/102/2 42/101/2 79/214/2

vt -2.66586 13.1729
f 73/215/2 82/212/2 75/211/2

v 8.4375 18.5 -8.4375
vt 8.4375 18.5
f 82/212/2 73/215/2 83/216/2

vt -1.40411 13.339
f 83/216/2 73/215/2 71/217/2

vt -0.142371 13.1729
f 83/216/2 71/217/2 69/218/2

vt 1.03339 12.6858
f 83/216/2 69/218/2 67/219/2

vt 2.04303 11.9111
f 83/216/2 67/219/2 65/220/2

vt 2.81776 10.9015
f 83/216/2 65/220/2 63/221/2

vt 3.30477 9.72572
f 83/216/2 63/221/2 61/222/2

vt 3.47089 8.46397
f 83/216/2 61/222/2 59/223/2

f 83/216/2 59/223/2 7/9/2

vt 3.30477 7.20223
f 57/224/2 7/9/2 59/223/2

vt 2.81776 6.02647
f 55/225/2 7/9/2 57/224/2

vt 2.04303 5.01683
f 53/226/2 7/9/2 55/225/2

vt 1.03339 4.2421
f 51/227/2 7/9/2 53/226/2

vt -0.142371 3.75509
f 49/228/2 7/9/2 51/227/2

vt -1.40411 3.58897
f 47/229/2 7/9/2 49/228/2

f 6/8/2 7/9/2 47/229/2

vt 8.4375 0
v -8.4375 18.5 -8.4375
vt 8.4375 18.5
vt -8.4375 18.5
vt -8.4375 0
f 8/230/7 84/231/7 83/232/7 7/233/7 

vt -3.47089 8.46397
vt -8.4375 18.5
f 8/16/4 60/234/4 84/235/4

vt -3.30477 7.20223
f 8/16/4 58/236/4 60/234/4

vt -2.81776 6.02647
f 8/16/4 56/237/4 58/236/4

vt -2.04303 5.01683
f 8/16/4 54/238/4 56/237/4

vt -1.03339 4.2421
f 8/16/4 52/239/4 54/238/4

vt 0.142371 3.75509
f 8/16/4 50/240/4 52/239/4

vt 1.40411 3.58897
f 8/16/4 48/241/4 50/240/4

f 8/16/4 9/15/4 48/241/4

vt -3.30477 9.72572
f 62/242/4 84/235/4 60/234/4

vt -2.81776 10.9015
f 64/243/4 84/235/4 62/242/4

vt -2.04303 11.9111
f 66/244/4 84/235/4 64/243/4

vt -1.03339 12.6858
f 68/245/4 84/235/4 66/244/4

vt 0.142371 13.1729
f 70/246/4 84/235/4 68/245/4

vt 1.40411 13.339
f 72/247/4 84/235/4 70/246/4

vt 2.66586 13.1729
f 74/248/4 84/235/4 72/247/4

f 74/248/4 81/206/4 84/235/4

f 76/205/4 81/206/4 74/248/4

vt -8.4375 8.4375
vt 8.4375 8.4375
f 84/249/6 81/99/6 82/98/6 83/250/6 

