# Alias OBJ Model File
# Exported from SketchUp, (c) 2000-2006 Google, Inc.
# File units = inches

mtllib clawLeft.mtl

g Mesh1 Model

usemtl FrontColor
v -0.173978 -2.81127 -0.189636
vt 0.173978 0.189636
vn 0 -1 -0
v 11.9552 -2.81127 -0.71073
vt -11.9552 0.71073
v 20.7698 -2.81127 7.37766
vt -20.7698 -7.37766
v 21.8665 -2.81127 32.9048
vt -21.8665 -32.9048
v 11.9552 -2.81127 42.1707
vt -11.9552 -42.1707
v 1.66489 -2.81127 42.6128
vt -1.66489 -42.6128
v 11.4619 -2.81127 30.6865
vt -11.4619 -30.6865
v 10.9625 -2.81127 19.0629
vt -10.9625 -19.0629
f 1/1/1 2/2/1 3/3/1 4/4/1 5/5/1 6/6/1 7/7/1 8/8/1 

v 11.9552 5.38814 -0.71073
vt -11.9747 5.38814
vn -0.0429223 0 -0.999078
vt -11.9747 -2.81127
vt 0.165678 -2.81127
v -0.173978 5.38814 -0.189636
vt 0.165678 5.38814
f 9/9/2 2/10/2 1/11/2 10/12/2 

vt -8.32817 5.38814
vn 0.676104 0 -0.736806
v 20.7698 5.38814 7.37766
vt -20.2914 5.38814
vt -20.2914 -2.81127
vt -8.32817 -2.81127
f 9/13/3 11/14/3 3/15/3 2/16/3 

v 21.8665 5.38814 32.9048
vt 21.8665 -32.9048
vn 0 1 -0
vt 20.7698 -7.37766
vt 11.9552 0.71073
vt -0.173978 0.189636
v 10.9625 5.38814 19.0629
vt 10.9625 -19.0629
v 11.4619 5.38814 30.6865
vt 11.4619 -30.6865
v 1.66489 5.38814 42.6128
vt 1.66489 -42.6128
v 11.9552 5.38814 42.1707
vt 11.9552 -42.1707
f 12/17/4 11/18/4 9/19/4 10/20/4 13/21/4 14/22/4 15/23/4 16/24/4 

vt -33.8131 -2.81127
vn 0.999078 0 -0.0429223
vt -8.26235 -2.81127
vt -8.26235 5.38814
vt -33.8131 5.38814
f 4/25/5 3/26/5 11/27/5 12/28/5 

vt -6.49811 5.38814
vn 0.682922 0 0.730492
vt -20.0661 5.38814
vt -20.0661 -2.81127
vt -6.49811 -2.81127
f 12/29/6 16/30/6 5/31/6 4/32/6 

vt -0.165678 -2.81127
vn 0.0429223 0 0.999078
vt 10.1342 -2.81127
vt 10.1342 5.38814
vt -0.165678 5.38814
f 6/33/7 5/34/7 16/35/7 15/36/7 

vt 31.8706 5.38814
vn -0.772712 0 -0.634756
vt 16.4364 5.38814
vt 16.4364 -2.81127
vt 31.8706 -2.81127
f 15/37/8 14/38/8 7/39/8 6/40/8 

vt 31.1502 5.38814
vn -0.999078 0 0.0429223
vt 19.5159 5.38814
vt 19.5159 -2.81127
vt 31.1502 -2.81127
f 14/41/9 13/42/9 8/43/9 7/44/9 

vt 21.9901 5.38814
vn -0.865616 0 0.500709
vt -0.251264 5.38814
vt -0.251264 -2.81127
vt 21.9901 -2.81127
f 13/45/10 10/46/10 1/47/10 8/48/10 

