# Alias OBJ Model File
# Exported from SketchUp, (c) 2000-2006 Google, Inc.
# File units = inches

mtllib clawRight.mtl

g Mesh1 Model

usemtl FrontColor
v 6.90138 6.23436 -0.71073
vt 6.90138 0.71073
vn 2.20005e-016 1 3.21162e-017
v -5.22785 6.23436 -0.189636
vt -5.22785 0.189636
v -13.3162 6.23436 8.62493
vt -13.3162 -8.62493
v -12.2195 6.23436 34.1521
vt -12.2195 -34.1521
v -1.5501 6.23436 42.5338
vt -1.5501 -42.5338
v 8.74025 6.23436 42.0917
vt 8.74025 -42.0917
v -2.04348 6.23436 31.0496
vt -2.04348 -31.0496
v -2.54286 6.23436 19.426
vt -2.54286 -19.426
f 1/1/1 2/2/1 3/3/1 4/4/1 5/5/1 6/6/1 7/7/1 8/8/1 

v -5.22785 -1.96505 -0.189636
vt 5.21489 -1.96505
vn -0.0429223 -2.55235e-017 -0.999078
vt 5.21489 6.23436
vt -6.92552 6.23436
v 6.90138 -1.96505 -0.71073
vt -6.92552 -1.96505
f 9/9/2 2/10/2 1/11/2 10/12/2 

vt 3.39485 -1.96505
vn -0.736806 7.83841e-016 -0.676104
v -13.3162 -1.96505 8.62493
vt 15.3581 -1.96505
vt 15.3581 6.23436
vt 3.39485 6.23436
f 9/13/3 11/14/3 3/15/3 2/16/3 

v -12.2195 -1.96505 34.1521
vt 12.2195 -34.1521
vn 3.56399e-016 -1 -3.16181e-017
vt 13.3162 -8.62493
vt 5.22785 0.189636
vt -6.90138 0.71073
v -2.54286 -1.96505 19.426
vt 2.54286 -19.426
v -2.04348 -1.96505 31.0496
vt 2.04348 -31.0496
v 8.74025 -1.96505 42.0917
vt -8.74025 -42.0917
v -1.5501 -1.96505 42.5338
vt 1.5501 -42.5338
f 12/17/4 11/18/4 9/19/4 10/20/4 13/21/4 14/22/4 15/23/4 16/24/4 

vt 33.5961 6.23436
vn -0.999078 7.31296e-016 0.0429223
vt 8.04542 6.23436
vt 8.04542 -1.96505
vt 33.5961 -1.96505
f 4/25/5 3/26/5 11/27/5 12/28/5 

vt 11.4885 -1.96505
vn -0.617754 1.6529e-015 0.786371
vt 25.0565 -1.96505
vt 25.0565 6.23436
vt 11.4885 6.23436
f 12/29/6 16/30/6 5/31/6 4/32/6 

vt 6.92552 6.23436
vn 0.0429223 3.15765e-016 0.999078
vt -3.37432 6.23436
vt -3.37432 -1.96505
vt 6.92552 -1.96505
f 6/33/7 5/34/7 16/35/7 15/36/7 

vt -36.2202 -1.96505
vn 0.715425 2.98716e-016 -0.698689
vt -20.7859 -1.96505
vt -20.7859 6.23436
vt -36.2202 6.23436
f 15/37/8 14/38/8 7/39/8 6/40/8 

vt -30.9333 -1.96505
vn 0.999078 5.88836e-016 -0.0429223
vt -19.2989 -1.96505
vt -19.2989 6.23436
vt -30.9333 6.23436
f 14/41/9 13/42/9 8/43/9 7/44/9 

vt -18.6675 -1.96505
vn 0.90537 1.44789e-016 0.424624
vt 3.57396 -1.96505
vt 3.57396 6.23436
vt -18.6675 6.23436
f 13/45/10 10/46/10 1/47/10 8/48/10 

